<mxfile host="Electron" agent="Mozilla/5.0 (Windows NT 10.0; Win64; x64) AppleWebKit/537.36 (KHTML, like Gecko) draw.io/26.0.9 Chrome/128.0.6613.186 Electron/32.2.5 Safari/537.36" version="26.0.9">
  <diagram name="Страница — 1" id="GDAYWDidCrlweN2LHvPO">
    <mxGraphModel dx="3187" dy="1858" grid="1" gridSize="10" guides="1" tooltips="1" connect="1" arrows="1" fold="1" page="1" pageScale="1" pageWidth="827" pageHeight="1169" math="0" shadow="0">
      <root>
        <mxCell id="0" />
        <mxCell id="1" parent="0" />
        <mxCell id="7wMVTMGLHSI1RZ-is7C0-1" value="" style="edgeStyle=orthogonalEdgeStyle;rounded=0;orthogonalLoop=1;jettySize=auto;html=1;" edge="1" source="7wMVTMGLHSI1RZ-is7C0-2" parent="1">
          <mxGeometry relative="1" as="geometry">
            <mxPoint x="400" y="120" as="targetPoint" />
          </mxGeometry>
        </mxCell>
        <mxCell id="7wMVTMGLHSI1RZ-is7C0-2" value="Начало" style="ellipse;whiteSpace=wrap;html=1;" vertex="1" parent="1">
          <mxGeometry x="340" y="50" width="120" height="40" as="geometry" />
        </mxCell>
        <mxCell id="7wMVTMGLHSI1RZ-is7C0-3" value="" style="edgeStyle=orthogonalEdgeStyle;rounded=0;orthogonalLoop=1;jettySize=auto;html=1;" edge="1" source="7wMVTMGLHSI1RZ-is7C0-4" parent="1">
          <mxGeometry relative="1" as="geometry">
            <mxPoint x="400" y="170" as="targetPoint" />
          </mxGeometry>
        </mxCell>
        <mxCell id="7wMVTMGLHSI1RZ-is7C0-4" value="int main()" style="shape=process;whiteSpace=wrap;html=1;backgroundOutline=1;" vertex="1" parent="1">
          <mxGeometry x="340" y="120" width="120" height="30" as="geometry" />
        </mxCell>
        <mxCell id="7wMVTMGLHSI1RZ-is7C0-5" value="srand(time(NULL));" style="rounded=0;whiteSpace=wrap;html=1;" vertex="1" parent="1">
          <mxGeometry x="340" y="170" width="120" height="30" as="geometry" />
        </mxCell>
        <mxCell id="7wMVTMGLHSI1RZ-is7C0-6" value="" style="edgeStyle=orthogonalEdgeStyle;rounded=0;orthogonalLoop=1;jettySize=auto;html=1;" edge="1" parent="1">
          <mxGeometry relative="1" as="geometry">
            <mxPoint x="400" y="200" as="sourcePoint" />
            <mxPoint x="400" y="220" as="targetPoint" />
          </mxGeometry>
        </mxCell>
        <mxCell id="7wMVTMGLHSI1RZ-is7C0-7" value="setlocale(LC_ALL, &quot;Russian&quot;);" style="rounded=0;whiteSpace=wrap;html=1;" vertex="1" parent="1">
          <mxGeometry x="340" y="220" width="120" height="30" as="geometry" />
        </mxCell>
        <mxCell id="7wMVTMGLHSI1RZ-is7C0-8" value="" style="edgeStyle=orthogonalEdgeStyle;rounded=0;orthogonalLoop=1;jettySize=auto;html=1;" edge="1" parent="1">
          <mxGeometry relative="1" as="geometry">
            <mxPoint x="400" y="250" as="sourcePoint" />
            <mxPoint x="400" y="270" as="targetPoint" />
          </mxGeometry>
        </mxCell>
        <mxCell id="7wMVTMGLHSI1RZ-is7C0-9" value="&lt;div&gt;#include &amp;lt;iostream&amp;gt;&lt;/div&gt;&lt;div&gt;#include &amp;lt;cstdlib&amp;gt;&lt;/div&gt;&lt;div&gt;#include &amp;lt;ctime&amp;gt;&lt;/div&gt;&lt;div&gt;using namespace std;&lt;/div&gt;&lt;div&gt;&lt;div&gt;int n, m, s;&lt;/div&gt;&lt;/div&gt;" style="strokeWidth=2;html=1;shape=mxgraph.flowchart.annotation_2;align=left;labelPosition=right;pointerEvents=1;" vertex="1" parent="1">
          <mxGeometry x="480" y="50" width="50" height="100" as="geometry" />
        </mxCell>
        <mxCell id="7wMVTMGLHSI1RZ-is7C0-10" value="" style="endArrow=none;dashed=1;html=1;rounded=0;entryX=-0.04;entryY=0.503;entryDx=0;entryDy=0;entryPerimeter=0;" edge="1" target="7wMVTMGLHSI1RZ-is7C0-9" parent="1">
          <mxGeometry width="50" height="50" relative="1" as="geometry">
            <mxPoint x="400" y="100" as="sourcePoint" />
            <mxPoint x="470" y="100" as="targetPoint" />
          </mxGeometry>
        </mxCell>
        <mxCell id="7wMVTMGLHSI1RZ-is7C0-13" value="cout &amp;lt;&amp;lt; &quot;Введите размерность: &quot;;" style="shape=parallelogram;perimeter=parallelogramPerimeter;whiteSpace=wrap;html=1;fixedSize=1;" vertex="1" parent="1">
          <mxGeometry x="280" y="270" width="240" height="30" as="geometry" />
        </mxCell>
        <mxCell id="7wMVTMGLHSI1RZ-is7C0-14" value="" style="edgeStyle=orthogonalEdgeStyle;rounded=0;orthogonalLoop=1;jettySize=auto;html=1;" edge="1" parent="1">
          <mxGeometry relative="1" as="geometry">
            <mxPoint x="400" y="300" as="sourcePoint" />
            <mxPoint x="400" y="320" as="targetPoint" />
          </mxGeometry>
        </mxCell>
        <mxCell id="7wMVTMGLHSI1RZ-is7C0-15" value="cin &amp;gt;&amp;gt; n &amp;gt;&amp;gt; m;" style="shape=parallelogram;perimeter=parallelogramPerimeter;whiteSpace=wrap;html=1;fixedSize=1;" vertex="1" parent="1">
          <mxGeometry x="330" y="320" width="130" height="30" as="geometry" />
        </mxCell>
        <mxCell id="7wMVTMGLHSI1RZ-is7C0-16" value="" style="edgeStyle=orthogonalEdgeStyle;rounded=0;orthogonalLoop=1;jettySize=auto;html=1;" edge="1" parent="1">
          <mxGeometry relative="1" as="geometry">
            <mxPoint x="400" y="350" as="sourcePoint" />
            <mxPoint x="400" y="370" as="targetPoint" />
          </mxGeometry>
        </mxCell>
        <mxCell id="7wMVTMGLHSI1RZ-is7C0-17" value="cout &amp;lt;&amp;lt; &quot;Введите по какой строке сортировать &quot;;" style="shape=parallelogram;perimeter=parallelogramPerimeter;whiteSpace=wrap;html=1;fixedSize=1;" vertex="1" parent="1">
          <mxGeometry x="280" y="370" width="240" height="30" as="geometry" />
        </mxCell>
        <mxCell id="7wMVTMGLHSI1RZ-is7C0-18" value="" style="edgeStyle=orthogonalEdgeStyle;rounded=0;orthogonalLoop=1;jettySize=auto;html=1;" edge="1" parent="1">
          <mxGeometry relative="1" as="geometry">
            <mxPoint x="400" y="400" as="sourcePoint" />
            <mxPoint x="400" y="420" as="targetPoint" />
          </mxGeometry>
        </mxCell>
        <mxCell id="7wMVTMGLHSI1RZ-is7C0-19" value="" style="edgeStyle=orthogonalEdgeStyle;rounded=0;orthogonalLoop=1;jettySize=auto;html=1;" edge="1" parent="1">
          <mxGeometry relative="1" as="geometry">
            <mxPoint x="400" y="400" as="sourcePoint" />
            <mxPoint x="400" y="420" as="targetPoint" />
          </mxGeometry>
        </mxCell>
        <mxCell id="7wMVTMGLHSI1RZ-is7C0-20" value="cin &amp;gt;&amp;gt; s;" style="shape=parallelogram;perimeter=parallelogramPerimeter;whiteSpace=wrap;html=1;fixedSize=1;" vertex="1" parent="1">
          <mxGeometry x="330" y="420" width="130" height="30" as="geometry" />
        </mxCell>
        <mxCell id="7wMVTMGLHSI1RZ-is7C0-21" value="" style="edgeStyle=orthogonalEdgeStyle;rounded=0;orthogonalLoop=1;jettySize=auto;html=1;" edge="1" parent="1">
          <mxGeometry relative="1" as="geometry">
            <mxPoint x="400" y="450" as="sourcePoint" />
            <mxPoint x="400" y="470" as="targetPoint" />
          </mxGeometry>
        </mxCell>
        <mxCell id="7wMVTMGLHSI1RZ-is7C0-22" value="s--;" style="rounded=0;whiteSpace=wrap;html=1;" vertex="1" parent="1">
          <mxGeometry x="340" y="470" width="120" height="30" as="geometry" />
        </mxCell>
        <mxCell id="7wMVTMGLHSI1RZ-is7C0-23" value="" style="edgeStyle=orthogonalEdgeStyle;rounded=0;orthogonalLoop=1;jettySize=auto;html=1;" edge="1" parent="1">
          <mxGeometry relative="1" as="geometry">
            <mxPoint x="400" y="500" as="sourcePoint" />
            <mxPoint x="400" y="520" as="targetPoint" />
          </mxGeometry>
        </mxCell>
        <mxCell id="7wMVTMGLHSI1RZ-is7C0-24" value="int** ptr = new int* [n];" style="rounded=0;whiteSpace=wrap;html=1;" vertex="1" parent="1">
          <mxGeometry x="340" y="520" width="120" height="30" as="geometry" />
        </mxCell>
        <mxCell id="7wMVTMGLHSI1RZ-is7C0-25" value="" style="edgeStyle=orthogonalEdgeStyle;rounded=0;orthogonalLoop=1;jettySize=auto;html=1;" edge="1" parent="1">
          <mxGeometry relative="1" as="geometry">
            <mxPoint x="404.0014285714285" y="550" as="sourcePoint" />
            <mxPoint x="404.0014285714285" y="570" as="targetPoint" />
          </mxGeometry>
        </mxCell>
        <mxCell id="7wMVTMGLHSI1RZ-is7C0-26" style="edgeStyle=orthogonalEdgeStyle;rounded=0;orthogonalLoop=1;jettySize=auto;html=1;exitX=1;exitY=0.5;exitDx=0;exitDy=0;" edge="1" source="7wMVTMGLHSI1RZ-is7C0-27" parent="1">
          <mxGeometry relative="1" as="geometry">
            <mxPoint x="654.0014285714285" y="680" as="targetPoint" />
          </mxGeometry>
        </mxCell>
        <mxCell id="7wMVTMGLHSI1RZ-is7C0-27" value="" style="verticalLabelPosition=bottom;verticalAlign=top;html=1;shape=hexagon;perimeter=hexagonPerimeter2;arcSize=6;size=0.11951219512195121;" vertex="1" parent="1">
          <mxGeometry x="299.5014285714285" y="570" width="205" height="50" as="geometry" />
        </mxCell>
        <mxCell id="7wMVTMGLHSI1RZ-is7C0-28" value="" style="edgeStyle=orthogonalEdgeStyle;rounded=0;orthogonalLoop=1;jettySize=auto;html=1;" edge="1" parent="1">
          <mxGeometry relative="1" as="geometry">
            <mxPoint x="403.7614285714285" y="620" as="sourcePoint" />
            <mxPoint x="404.0014285714285" y="640" as="targetPoint" />
          </mxGeometry>
        </mxCell>
        <mxCell id="7wMVTMGLHSI1RZ-is7C0-29" value="for (int i = 0; i &amp;lt; n; i++)" style="text;html=1;align=center;verticalAlign=middle;whiteSpace=wrap;rounded=0;" vertex="1" parent="1">
          <mxGeometry x="344.0014285714285" y="580" width="120" height="30" as="geometry" />
        </mxCell>
        <mxCell id="7wMVTMGLHSI1RZ-is7C0-30" value="" style="edgeStyle=orthogonalEdgeStyle;rounded=0;orthogonalLoop=1;jettySize=auto;html=1;entryX=0;entryY=0.5;entryDx=0;entryDy=0;" edge="1" target="7wMVTMGLHSI1RZ-is7C0-27" parent="1">
          <mxGeometry relative="1" as="geometry">
            <mxPoint x="404.0014285714285" y="670" as="sourcePoint" />
            <mxPoint x="284.0014285714285" y="640" as="targetPoint" />
            <Array as="points">
              <mxPoint x="404.0014285714285" y="720" />
              <mxPoint x="280.0014285714285" y="720" />
              <mxPoint x="280.0014285714285" y="595" />
            </Array>
          </mxGeometry>
        </mxCell>
        <mxCell id="7wMVTMGLHSI1RZ-is7C0-31" value="ptr[i] = new int[m];" style="rounded=0;whiteSpace=wrap;html=1;" vertex="1" parent="1">
          <mxGeometry x="344.0014285714285" y="640" width="120" height="30" as="geometry" />
        </mxCell>
        <mxCell id="7wMVTMGLHSI1RZ-is7C0-32" value="" style="edgeStyle=orthogonalEdgeStyle;rounded=0;orthogonalLoop=1;jettySize=auto;html=1;" edge="1" parent="1">
          <mxGeometry relative="1" as="geometry">
            <mxPoint x="653.9714285714285" y="660" as="sourcePoint" />
            <mxPoint x="653.9714285714285" y="680" as="targetPoint" />
          </mxGeometry>
        </mxCell>
        <mxCell id="7wMVTMGLHSI1RZ-is7C0-50" style="edgeStyle=orthogonalEdgeStyle;rounded=0;orthogonalLoop=1;jettySize=auto;html=1;exitX=1;exitY=0.5;exitDx=0;exitDy=0;" edge="1" parent="1" source="7wMVTMGLHSI1RZ-is7C0-34" target="7wMVTMGLHSI1RZ-is7C0-47">
          <mxGeometry relative="1" as="geometry" />
        </mxCell>
        <mxCell id="7wMVTMGLHSI1RZ-is7C0-34" value="" style="verticalLabelPosition=bottom;verticalAlign=top;html=1;shape=hexagon;perimeter=hexagonPerimeter2;arcSize=6;size=0.11951219512195121;" vertex="1" parent="1">
          <mxGeometry x="549.4714285714285" y="680" width="205" height="50" as="geometry" />
        </mxCell>
        <mxCell id="7wMVTMGLHSI1RZ-is7C0-35" value="" style="edgeStyle=orthogonalEdgeStyle;rounded=0;orthogonalLoop=1;jettySize=auto;html=1;" edge="1" parent="1">
          <mxGeometry relative="1" as="geometry">
            <mxPoint x="653.7314285714285" y="730" as="sourcePoint" />
            <mxPoint x="653.9714285714285" y="750" as="targetPoint" />
          </mxGeometry>
        </mxCell>
        <mxCell id="7wMVTMGLHSI1RZ-is7C0-36" value="for (int i = 0; i &amp;lt; n; i++)" style="text;html=1;align=center;verticalAlign=middle;whiteSpace=wrap;rounded=0;" vertex="1" parent="1">
          <mxGeometry x="593.9714285714285" y="690" width="120" height="30" as="geometry" />
        </mxCell>
        <mxCell id="7wMVTMGLHSI1RZ-is7C0-39" value="" style="edgeStyle=orthogonalEdgeStyle;rounded=0;orthogonalLoop=1;jettySize=auto;html=1;" edge="1" parent="1">
          <mxGeometry relative="1" as="geometry">
            <mxPoint x="653.9714285714285" y="730" as="sourcePoint" />
            <mxPoint x="653.9714285714285" y="750" as="targetPoint" />
          </mxGeometry>
        </mxCell>
        <mxCell id="7wMVTMGLHSI1RZ-is7C0-40" style="edgeStyle=orthogonalEdgeStyle;rounded=0;orthogonalLoop=1;jettySize=auto;html=1;exitX=1;exitY=0.5;exitDx=0;exitDy=0;entryX=0.003;entryY=0.4;entryDx=0;entryDy=0;entryPerimeter=0;" edge="1" source="7wMVTMGLHSI1RZ-is7C0-41" parent="1" target="7wMVTMGLHSI1RZ-is7C0-34">
          <mxGeometry relative="1" as="geometry">
            <mxPoint x="490" y="740" as="targetPoint" />
            <Array as="points">
              <mxPoint x="770" y="775" />
              <mxPoint x="770" y="900" />
              <mxPoint x="510" y="900" />
              <mxPoint x="510" y="700" />
            </Array>
          </mxGeometry>
        </mxCell>
        <mxCell id="7wMVTMGLHSI1RZ-is7C0-41" value="" style="verticalLabelPosition=bottom;verticalAlign=top;html=1;shape=hexagon;perimeter=hexagonPerimeter2;arcSize=6;size=0.11951219512195121;" vertex="1" parent="1">
          <mxGeometry x="549.4714285714285" y="750" width="205" height="50" as="geometry" />
        </mxCell>
        <mxCell id="7wMVTMGLHSI1RZ-is7C0-42" value="" style="edgeStyle=orthogonalEdgeStyle;rounded=0;orthogonalLoop=1;jettySize=auto;html=1;" edge="1" parent="1">
          <mxGeometry relative="1" as="geometry">
            <mxPoint x="653.7314285714285" y="800" as="sourcePoint" />
            <mxPoint x="653.9714285714285" y="820" as="targetPoint" />
          </mxGeometry>
        </mxCell>
        <mxCell id="7wMVTMGLHSI1RZ-is7C0-43" value="for (int j = 0; j &amp;lt; m; j++)" style="text;html=1;align=center;verticalAlign=middle;whiteSpace=wrap;rounded=0;" vertex="1" parent="1">
          <mxGeometry x="580" y="760" width="150" height="30" as="geometry" />
        </mxCell>
        <mxCell id="7wMVTMGLHSI1RZ-is7C0-44" value="" style="edgeStyle=orthogonalEdgeStyle;rounded=0;orthogonalLoop=1;jettySize=auto;html=1;entryX=0;entryY=0.5;entryDx=0;entryDy=0;" edge="1" target="7wMVTMGLHSI1RZ-is7C0-41" parent="1">
          <mxGeometry relative="1" as="geometry">
            <mxPoint x="653.9714285714285" y="850" as="sourcePoint" />
            <mxPoint x="533.9714285714285" y="820" as="targetPoint" />
            <Array as="points">
              <mxPoint x="654" y="880" />
              <mxPoint x="530" y="880" />
              <mxPoint x="530" y="775" />
            </Array>
          </mxGeometry>
        </mxCell>
        <mxCell id="7wMVTMGLHSI1RZ-is7C0-45" value="ptr[i][j] = rand() % 20;" style="rounded=0;whiteSpace=wrap;html=1;" vertex="1" parent="1">
          <mxGeometry x="593.9714285714285" y="820" width="120" height="30" as="geometry" />
        </mxCell>
        <mxCell id="7wMVTMGLHSI1RZ-is7C0-61" style="edgeStyle=orthogonalEdgeStyle;rounded=0;orthogonalLoop=1;jettySize=auto;html=1;exitX=0.5;exitY=1;exitDx=0;exitDy=0;entryX=0.5;entryY=0;entryDx=0;entryDy=0;" edge="1" parent="1" source="7wMVTMGLHSI1RZ-is7C0-47" target="7wMVTMGLHSI1RZ-is7C0-51">
          <mxGeometry relative="1" as="geometry" />
        </mxCell>
        <mxCell id="7wMVTMGLHSI1RZ-is7C0-47" value="cout &amp;lt;&amp;lt; &quot;Изначальный массив: &quot; &amp;lt;&amp;lt; endl;" style="shape=parallelogram;perimeter=parallelogramPerimeter;whiteSpace=wrap;html=1;fixedSize=1;" vertex="1" parent="1">
          <mxGeometry x="820" y="800" width="280" height="60" as="geometry" />
        </mxCell>
        <mxCell id="7wMVTMGLHSI1RZ-is7C0-105" style="edgeStyle=orthogonalEdgeStyle;rounded=0;orthogonalLoop=1;jettySize=auto;html=1;exitX=1;exitY=0.5;exitDx=0;exitDy=0;entryX=0.5;entryY=0;entryDx=0;entryDy=0;" edge="1" parent="1" source="7wMVTMGLHSI1RZ-is7C0-51" target="7wMVTMGLHSI1RZ-is7C0-68">
          <mxGeometry relative="1" as="geometry" />
        </mxCell>
        <mxCell id="7wMVTMGLHSI1RZ-is7C0-51" value="" style="verticalLabelPosition=bottom;verticalAlign=top;html=1;shape=hexagon;perimeter=hexagonPerimeter2;arcSize=6;size=0.11951219512195121;" vertex="1" parent="1">
          <mxGeometry x="859.4428571428571" y="890" width="205" height="50" as="geometry" />
        </mxCell>
        <mxCell id="7wMVTMGLHSI1RZ-is7C0-52" value="" style="edgeStyle=orthogonalEdgeStyle;rounded=0;orthogonalLoop=1;jettySize=auto;html=1;" edge="1" parent="1">
          <mxGeometry relative="1" as="geometry">
            <mxPoint x="963.702857142857" y="940" as="sourcePoint" />
            <mxPoint x="963.9428571428571" y="960" as="targetPoint" />
          </mxGeometry>
        </mxCell>
        <mxCell id="7wMVTMGLHSI1RZ-is7C0-53" value="for (int i = 0; i &amp;lt; n; i++)" style="text;html=1;align=center;verticalAlign=middle;whiteSpace=wrap;rounded=0;" vertex="1" parent="1">
          <mxGeometry x="903.9428571428571" y="900" width="120" height="30" as="geometry" />
        </mxCell>
        <mxCell id="7wMVTMGLHSI1RZ-is7C0-54" value="" style="edgeStyle=orthogonalEdgeStyle;rounded=0;orthogonalLoop=1;jettySize=auto;html=1;" edge="1" parent="1">
          <mxGeometry relative="1" as="geometry">
            <mxPoint x="963.9428571428571" y="940" as="sourcePoint" />
            <mxPoint x="963.9428571428571" y="960" as="targetPoint" />
          </mxGeometry>
        </mxCell>
        <mxCell id="7wMVTMGLHSI1RZ-is7C0-55" style="edgeStyle=orthogonalEdgeStyle;rounded=0;orthogonalLoop=1;jettySize=auto;html=1;exitX=1;exitY=0.5;exitDx=0;exitDy=0;entryX=0.003;entryY=0.4;entryDx=0;entryDy=0;entryPerimeter=0;" edge="1" source="7wMVTMGLHSI1RZ-is7C0-56" target="7wMVTMGLHSI1RZ-is7C0-51" parent="1">
          <mxGeometry relative="1" as="geometry">
            <mxPoint x="799.9714285714285" y="950" as="targetPoint" />
            <Array as="points">
              <mxPoint x="1079.9714285714285" y="985" />
              <mxPoint x="1079.9714285714285" y="1110" />
              <mxPoint x="819.9714285714285" y="1110" />
              <mxPoint x="819.9714285714285" y="910" />
            </Array>
          </mxGeometry>
        </mxCell>
        <mxCell id="7wMVTMGLHSI1RZ-is7C0-56" value="" style="verticalLabelPosition=bottom;verticalAlign=top;html=1;shape=hexagon;perimeter=hexagonPerimeter2;arcSize=6;size=0.11951219512195121;" vertex="1" parent="1">
          <mxGeometry x="859.4428571428571" y="960" width="205" height="50" as="geometry" />
        </mxCell>
        <mxCell id="7wMVTMGLHSI1RZ-is7C0-57" value="" style="edgeStyle=orthogonalEdgeStyle;rounded=0;orthogonalLoop=1;jettySize=auto;html=1;" edge="1" parent="1">
          <mxGeometry relative="1" as="geometry">
            <mxPoint x="963.702857142857" y="1010" as="sourcePoint" />
            <mxPoint x="963.9428571428571" y="1030" as="targetPoint" />
          </mxGeometry>
        </mxCell>
        <mxCell id="7wMVTMGLHSI1RZ-is7C0-58" value="for (int j = 0; j &amp;lt; m; j++)" style="text;html=1;align=center;verticalAlign=middle;whiteSpace=wrap;rounded=0;" vertex="1" parent="1">
          <mxGeometry x="889.9714285714285" y="970" width="150" height="30" as="geometry" />
        </mxCell>
        <mxCell id="7wMVTMGLHSI1RZ-is7C0-59" value="" style="edgeStyle=orthogonalEdgeStyle;rounded=0;orthogonalLoop=1;jettySize=auto;html=1;entryX=0;entryY=0.5;entryDx=0;entryDy=0;" edge="1" target="7wMVTMGLHSI1RZ-is7C0-56" parent="1">
          <mxGeometry relative="1" as="geometry">
            <mxPoint x="963.9428571428571" y="1060" as="sourcePoint" />
            <mxPoint x="843.9428571428571" y="1030" as="targetPoint" />
            <Array as="points">
              <mxPoint x="963.9714285714285" y="1090" />
              <mxPoint x="839.9714285714285" y="1090" />
              <mxPoint x="839.9714285714285" y="985" />
            </Array>
          </mxGeometry>
        </mxCell>
        <mxCell id="7wMVTMGLHSI1RZ-is7C0-63" value="cout &amp;lt;&amp;lt; ptr[i][j] &amp;lt;&amp;lt; &#39;\t&#39;;" style="shape=parallelogram;perimeter=parallelogramPerimeter;whiteSpace=wrap;html=1;fixedSize=1;" vertex="1" parent="1">
          <mxGeometry x="891.94" y="1030" width="140" height="30" as="geometry" />
        </mxCell>
        <mxCell id="7wMVTMGLHSI1RZ-is7C0-64" value="cout &amp;lt;&amp;lt; endl;" style="shape=parallelogram;perimeter=parallelogramPerimeter;whiteSpace=wrap;html=1;fixedSize=1;" vertex="1" parent="1">
          <mxGeometry x="1023.94" y="1050" width="140" height="30" as="geometry" />
        </mxCell>
        <mxCell id="7wMVTMGLHSI1RZ-is7C0-65" style="edgeStyle=orthogonalEdgeStyle;rounded=0;orthogonalLoop=1;jettySize=auto;html=1;exitX=1;exitY=0.5;exitDx=0;exitDy=0;entryX=0.403;entryY=0.019;entryDx=0;entryDy=0;entryPerimeter=0;" edge="1" parent="1" source="7wMVTMGLHSI1RZ-is7C0-56" target="7wMVTMGLHSI1RZ-is7C0-64">
          <mxGeometry relative="1" as="geometry">
            <Array as="points">
              <mxPoint x="1080" y="985" />
              <mxPoint x="1080" y="1030" />
              <mxPoint x="1080" y="1030" />
            </Array>
          </mxGeometry>
        </mxCell>
        <mxCell id="7wMVTMGLHSI1RZ-is7C0-123" style="edgeStyle=orthogonalEdgeStyle;rounded=0;orthogonalLoop=1;jettySize=auto;html=1;exitX=1;exitY=0.5;exitDx=0;exitDy=0;entryX=0.5;entryY=0;entryDx=0;entryDy=0;" edge="1" parent="1" source="7wMVTMGLHSI1RZ-is7C0-68" target="7wMVTMGLHSI1RZ-is7C0-109">
          <mxGeometry relative="1" as="geometry" />
        </mxCell>
        <mxCell id="7wMVTMGLHSI1RZ-is7C0-68" value="" style="verticalLabelPosition=bottom;verticalAlign=top;html=1;shape=hexagon;perimeter=hexagonPerimeter2;arcSize=6;size=0.11951219512195121;" vertex="1" parent="1">
          <mxGeometry x="1309.442857142857" y="1020" width="205" height="50" as="geometry" />
        </mxCell>
        <mxCell id="7wMVTMGLHSI1RZ-is7C0-69" value="" style="edgeStyle=orthogonalEdgeStyle;rounded=0;orthogonalLoop=1;jettySize=auto;html=1;" edge="1" parent="1">
          <mxGeometry relative="1" as="geometry">
            <mxPoint x="1413.702857142857" y="1070" as="sourcePoint" />
            <mxPoint x="1413.942857142857" y="1090" as="targetPoint" />
          </mxGeometry>
        </mxCell>
        <mxCell id="7wMVTMGLHSI1RZ-is7C0-70" value="for (int i = 0; i &amp;lt; m; i++)" style="text;html=1;align=center;verticalAlign=middle;whiteSpace=wrap;rounded=0;" vertex="1" parent="1">
          <mxGeometry x="1353.94" y="1030" width="136.06" height="30" as="geometry" />
        </mxCell>
        <mxCell id="7wMVTMGLHSI1RZ-is7C0-71" value="" style="edgeStyle=orthogonalEdgeStyle;rounded=0;orthogonalLoop=1;jettySize=auto;html=1;" edge="1" parent="1">
          <mxGeometry relative="1" as="geometry">
            <mxPoint x="1413.942857142857" y="1070" as="sourcePoint" />
            <mxPoint x="1413.942857142857" y="1090" as="targetPoint" />
          </mxGeometry>
        </mxCell>
        <mxCell id="7wMVTMGLHSI1RZ-is7C0-92" style="edgeStyle=orthogonalEdgeStyle;rounded=0;orthogonalLoop=1;jettySize=auto;html=1;exitX=1;exitY=0.5;exitDx=0;exitDy=0;entryX=0.5;entryY=0;entryDx=0;entryDy=0;" edge="1" parent="1" source="7wMVTMGLHSI1RZ-is7C0-73" target="7wMVTMGLHSI1RZ-is7C0-93">
          <mxGeometry relative="1" as="geometry">
            <mxPoint x="1780" y="1250" as="targetPoint" />
            <Array as="points">
              <mxPoint x="1640" y="1175" />
              <mxPoint x="1640" y="1430" />
              <mxPoint x="1412" y="1430" />
            </Array>
          </mxGeometry>
        </mxCell>
        <mxCell id="7wMVTMGLHSI1RZ-is7C0-73" value="" style="verticalLabelPosition=bottom;verticalAlign=top;html=1;shape=hexagon;perimeter=hexagonPerimeter2;arcSize=6;size=0.11951219512195121;" vertex="1" parent="1">
          <mxGeometry x="1309.442857142857" y="1150" width="205" height="50" as="geometry" />
        </mxCell>
        <mxCell id="7wMVTMGLHSI1RZ-is7C0-74" value="" style="edgeStyle=orthogonalEdgeStyle;rounded=0;orthogonalLoop=1;jettySize=auto;html=1;" edge="1" parent="1">
          <mxGeometry relative="1" as="geometry">
            <mxPoint x="1413.702857142857" y="1200" as="sourcePoint" />
            <mxPoint x="1413.942857142857" y="1220" as="targetPoint" />
          </mxGeometry>
        </mxCell>
        <mxCell id="7wMVTMGLHSI1RZ-is7C0-75" value="for (int j = i + 1; j &lt; m; j++)" style="text;html=1;align=center;verticalAlign=middle;whiteSpace=wrap;rounded=0;" vertex="1" parent="1">
          <mxGeometry x="1339.9714285714285" y="1160" width="150" height="30" as="geometry" />
        </mxCell>
        <mxCell id="7wMVTMGLHSI1RZ-is7C0-79" style="edgeStyle=orthogonalEdgeStyle;rounded=0;orthogonalLoop=1;jettySize=auto;html=1;exitX=0.5;exitY=1;exitDx=0;exitDy=0;" edge="1" parent="1" source="7wMVTMGLHSI1RZ-is7C0-78" target="7wMVTMGLHSI1RZ-is7C0-73">
          <mxGeometry relative="1" as="geometry" />
        </mxCell>
        <mxCell id="7wMVTMGLHSI1RZ-is7C0-78" value="int min = i;" style="rounded=0;whiteSpace=wrap;html=1;" vertex="1" parent="1">
          <mxGeometry x="1351.942857142857" y="1090" width="120" height="30" as="geometry" />
        </mxCell>
        <mxCell id="7wMVTMGLHSI1RZ-is7C0-82" style="edgeStyle=orthogonalEdgeStyle;rounded=0;orthogonalLoop=1;jettySize=auto;html=1;exitX=0;exitY=0.5;exitDx=0;exitDy=0;entryX=0.5;entryY=0;entryDx=0;entryDy=0;" edge="1" parent="1" source="7wMVTMGLHSI1RZ-is7C0-80" target="7wMVTMGLHSI1RZ-is7C0-81">
          <mxGeometry relative="1" as="geometry" />
        </mxCell>
        <mxCell id="7wMVTMGLHSI1RZ-is7C0-84" style="edgeStyle=orthogonalEdgeStyle;rounded=0;orthogonalLoop=1;jettySize=auto;html=1;exitX=1;exitY=0.5;exitDx=0;exitDy=0;" edge="1" parent="1" source="7wMVTMGLHSI1RZ-is7C0-80">
          <mxGeometry relative="1" as="geometry">
            <mxPoint x="1420" y="1370" as="targetPoint" />
            <Array as="points">
              <mxPoint x="1540" y="1260" />
              <mxPoint x="1540" y="1370" />
            </Array>
          </mxGeometry>
        </mxCell>
        <mxCell id="7wMVTMGLHSI1RZ-is7C0-80" value="if (ptr[s][j] &amp;lt; ptr[s][min])" style="rhombus;whiteSpace=wrap;html=1;" vertex="1" parent="1">
          <mxGeometry x="1330" y="1220" width="170" height="80" as="geometry" />
        </mxCell>
        <mxCell id="7wMVTMGLHSI1RZ-is7C0-85" style="edgeStyle=orthogonalEdgeStyle;rounded=0;orthogonalLoop=1;jettySize=auto;html=1;exitX=0.5;exitY=1;exitDx=0;exitDy=0;" edge="1" parent="1" source="7wMVTMGLHSI1RZ-is7C0-81">
          <mxGeometry relative="1" as="geometry">
            <mxPoint x="1420" y="1370" as="targetPoint" />
            <Array as="points">
              <mxPoint x="1275" y="1370" />
            </Array>
          </mxGeometry>
        </mxCell>
        <mxCell id="7wMVTMGLHSI1RZ-is7C0-81" value="min = j;" style="rounded=0;whiteSpace=wrap;html=1;" vertex="1" parent="1">
          <mxGeometry x="1240" y="1320" width="70" height="30" as="geometry" />
        </mxCell>
        <mxCell id="7wMVTMGLHSI1RZ-is7C0-83" value="1" style="text;html=1;align=center;verticalAlign=middle;resizable=0;points=[];autosize=1;strokeColor=none;fillColor=none;" vertex="1" parent="1">
          <mxGeometry x="1305" y="1218" width="30" height="30" as="geometry" />
        </mxCell>
        <mxCell id="7wMVTMGLHSI1RZ-is7C0-86" value="0" style="text;html=1;align=center;verticalAlign=middle;resizable=0;points=[];autosize=1;strokeColor=none;fillColor=none;" vertex="1" parent="1">
          <mxGeometry x="1485" y="1218" width="30" height="30" as="geometry" />
        </mxCell>
        <mxCell id="7wMVTMGLHSI1RZ-is7C0-91" value="" style="endArrow=classic;html=1;rounded=0;entryX=0;entryY=0.5;entryDx=0;entryDy=0;" edge="1" parent="1" target="7wMVTMGLHSI1RZ-is7C0-73">
          <mxGeometry width="50" height="50" relative="1" as="geometry">
            <mxPoint x="1420" y="1370" as="sourcePoint" />
            <mxPoint x="1420" y="1410" as="targetPoint" />
            <Array as="points">
              <mxPoint x="1420" y="1410" />
              <mxPoint x="1220" y="1410" />
              <mxPoint x="1220" y="1175" />
            </Array>
          </mxGeometry>
        </mxCell>
        <mxCell id="7wMVTMGLHSI1RZ-is7C0-108" style="edgeStyle=orthogonalEdgeStyle;rounded=0;orthogonalLoop=1;jettySize=auto;html=1;exitX=1;exitY=0.5;exitDx=0;exitDy=0;entryX=0;entryY=0.5;entryDx=0;entryDy=0;" edge="1" parent="1" source="7wMVTMGLHSI1RZ-is7C0-93" target="7wMVTMGLHSI1RZ-is7C0-68">
          <mxGeometry relative="1" as="geometry">
            <Array as="points">
              <mxPoint x="1535" y="1485" />
              <mxPoint x="1535" y="1710" />
              <mxPoint x="1190" y="1710" />
              <mxPoint x="1190" y="1045" />
            </Array>
          </mxGeometry>
        </mxCell>
        <mxCell id="7wMVTMGLHSI1RZ-is7C0-93" value="" style="verticalLabelPosition=bottom;verticalAlign=top;html=1;shape=hexagon;perimeter=hexagonPerimeter2;arcSize=6;size=0.11951219512195121;" vertex="1" parent="1">
          <mxGeometry x="1310.002857142857" y="1460" width="205" height="50" as="geometry" />
        </mxCell>
        <mxCell id="7wMVTMGLHSI1RZ-is7C0-94" value="" style="edgeStyle=orthogonalEdgeStyle;rounded=0;orthogonalLoop=1;jettySize=auto;html=1;" edge="1" parent="1">
          <mxGeometry relative="1" as="geometry">
            <mxPoint x="1414.262857142857" y="1510" as="sourcePoint" />
            <mxPoint x="1414.502857142857" y="1530" as="targetPoint" />
          </mxGeometry>
        </mxCell>
        <mxCell id="7wMVTMGLHSI1RZ-is7C0-95" value="&lt;div&gt;for (int k = 0; k &amp;lt; n; k++)&lt;/div&gt;" style="text;html=1;align=center;verticalAlign=middle;whiteSpace=wrap;rounded=0;" vertex="1" parent="1">
          <mxGeometry x="1354.5" y="1470" width="136.06" height="30" as="geometry" />
        </mxCell>
        <mxCell id="7wMVTMGLHSI1RZ-is7C0-96" value="" style="edgeStyle=orthogonalEdgeStyle;rounded=0;orthogonalLoop=1;jettySize=auto;html=1;" edge="1" parent="1">
          <mxGeometry relative="1" as="geometry">
            <mxPoint x="1414.502857142857" y="1510" as="sourcePoint" />
            <mxPoint x="1414.502857142857" y="1530" as="targetPoint" />
          </mxGeometry>
        </mxCell>
        <mxCell id="7wMVTMGLHSI1RZ-is7C0-97" value="int temp = ptr[k][min];" style="rounded=0;whiteSpace=wrap;html=1;" vertex="1" parent="1">
          <mxGeometry x="1352.502857142857" y="1530" width="120" height="30" as="geometry" />
        </mxCell>
        <mxCell id="7wMVTMGLHSI1RZ-is7C0-98" value="" style="edgeStyle=orthogonalEdgeStyle;rounded=0;orthogonalLoop=1;jettySize=auto;html=1;" edge="1" parent="1">
          <mxGeometry relative="1" as="geometry">
            <mxPoint x="1414.262857142857" y="1560" as="sourcePoint" />
            <mxPoint x="1414.502857142857" y="1580" as="targetPoint" />
          </mxGeometry>
        </mxCell>
        <mxCell id="7wMVTMGLHSI1RZ-is7C0-99" value="" style="edgeStyle=orthogonalEdgeStyle;rounded=0;orthogonalLoop=1;jettySize=auto;html=1;" edge="1" parent="1">
          <mxGeometry relative="1" as="geometry">
            <mxPoint x="1414.502857142857" y="1560" as="sourcePoint" />
            <mxPoint x="1414.502857142857" y="1580" as="targetPoint" />
          </mxGeometry>
        </mxCell>
        <mxCell id="7wMVTMGLHSI1RZ-is7C0-100" value="ptr[k][min] = ptr[k][i];" style="rounded=0;whiteSpace=wrap;html=1;" vertex="1" parent="1">
          <mxGeometry x="1352.502857142857" y="1580" width="120" height="30" as="geometry" />
        </mxCell>
        <mxCell id="7wMVTMGLHSI1RZ-is7C0-101" value="" style="edgeStyle=orthogonalEdgeStyle;rounded=0;orthogonalLoop=1;jettySize=auto;html=1;" edge="1" parent="1">
          <mxGeometry relative="1" as="geometry">
            <mxPoint x="1414.262857142857" y="1610" as="sourcePoint" />
            <mxPoint x="1414.502857142857" y="1630" as="targetPoint" />
          </mxGeometry>
        </mxCell>
        <mxCell id="7wMVTMGLHSI1RZ-is7C0-102" value="" style="edgeStyle=orthogonalEdgeStyle;rounded=0;orthogonalLoop=1;jettySize=auto;html=1;" edge="1" parent="1">
          <mxGeometry relative="1" as="geometry">
            <mxPoint x="1414.502857142857" y="1610" as="sourcePoint" />
            <mxPoint x="1414.502857142857" y="1630" as="targetPoint" />
          </mxGeometry>
        </mxCell>
        <mxCell id="7wMVTMGLHSI1RZ-is7C0-104" style="edgeStyle=orthogonalEdgeStyle;rounded=0;orthogonalLoop=1;jettySize=auto;html=1;exitX=0.5;exitY=1;exitDx=0;exitDy=0;entryX=0;entryY=0.5;entryDx=0;entryDy=0;" edge="1" parent="1" source="7wMVTMGLHSI1RZ-is7C0-103" target="7wMVTMGLHSI1RZ-is7C0-93">
          <mxGeometry relative="1" as="geometry" />
        </mxCell>
        <mxCell id="7wMVTMGLHSI1RZ-is7C0-103" value="ptr[k][i] = temp;" style="rounded=0;whiteSpace=wrap;html=1;" vertex="1" parent="1">
          <mxGeometry x="1352.502857142857" y="1630" width="120" height="30" as="geometry" />
        </mxCell>
        <mxCell id="7wMVTMGLHSI1RZ-is7C0-109" value="cout &amp;lt;&amp;lt; &quot;Отсортированный массив: &quot; &amp;lt;&amp;lt; endl;" style="shape=parallelogram;perimeter=parallelogramPerimeter;whiteSpace=wrap;html=1;fixedSize=1;" vertex="1" parent="1">
          <mxGeometry x="1770" y="1130" width="280" height="30" as="geometry" />
        </mxCell>
        <mxCell id="7wMVTMGLHSI1RZ-is7C0-110" style="edgeStyle=orthogonalEdgeStyle;rounded=0;orthogonalLoop=1;jettySize=auto;html=1;exitX=0.5;exitY=1;exitDx=0;exitDy=0;entryX=0.5;entryY=0;entryDx=0;entryDy=0;" edge="1" parent="1" target="7wMVTMGLHSI1RZ-is7C0-111">
          <mxGeometry relative="1" as="geometry">
            <mxPoint x="1910.04" y="1160" as="sourcePoint" />
          </mxGeometry>
        </mxCell>
        <mxCell id="7wMVTMGLHSI1RZ-is7C0-124" style="edgeStyle=orthogonalEdgeStyle;rounded=0;orthogonalLoop=1;jettySize=auto;html=1;exitX=1;exitY=0.5;exitDx=0;exitDy=0;" edge="1" parent="1" source="7wMVTMGLHSI1RZ-is7C0-111">
          <mxGeometry relative="1" as="geometry">
            <mxPoint x="2290" y="1320" as="targetPoint" />
          </mxGeometry>
        </mxCell>
        <mxCell id="7wMVTMGLHSI1RZ-is7C0-111" value="" style="verticalLabelPosition=bottom;verticalAlign=top;html=1;shape=hexagon;perimeter=hexagonPerimeter2;arcSize=6;size=0.11951219512195121;" vertex="1" parent="1">
          <mxGeometry x="1809.482857142857" y="1190" width="205" height="50" as="geometry" />
        </mxCell>
        <mxCell id="7wMVTMGLHSI1RZ-is7C0-112" value="" style="edgeStyle=orthogonalEdgeStyle;rounded=0;orthogonalLoop=1;jettySize=auto;html=1;" edge="1" parent="1">
          <mxGeometry relative="1" as="geometry">
            <mxPoint x="1913.742857142857" y="1240" as="sourcePoint" />
            <mxPoint x="1913.982857142857" y="1260" as="targetPoint" />
          </mxGeometry>
        </mxCell>
        <mxCell id="7wMVTMGLHSI1RZ-is7C0-113" value="for (int i = 0; i &amp;lt; n; i++)" style="text;html=1;align=center;verticalAlign=middle;whiteSpace=wrap;rounded=0;" vertex="1" parent="1">
          <mxGeometry x="1853.982857142857" y="1200" width="120" height="30" as="geometry" />
        </mxCell>
        <mxCell id="7wMVTMGLHSI1RZ-is7C0-114" value="" style="edgeStyle=orthogonalEdgeStyle;rounded=0;orthogonalLoop=1;jettySize=auto;html=1;" edge="1" parent="1">
          <mxGeometry relative="1" as="geometry">
            <mxPoint x="1913.982857142857" y="1240" as="sourcePoint" />
            <mxPoint x="1913.982857142857" y="1260" as="targetPoint" />
          </mxGeometry>
        </mxCell>
        <mxCell id="7wMVTMGLHSI1RZ-is7C0-115" style="edgeStyle=orthogonalEdgeStyle;rounded=0;orthogonalLoop=1;jettySize=auto;html=1;exitX=1;exitY=0.5;exitDx=0;exitDy=0;entryX=0.003;entryY=0.4;entryDx=0;entryDy=0;entryPerimeter=0;" edge="1" parent="1" source="7wMVTMGLHSI1RZ-is7C0-116" target="7wMVTMGLHSI1RZ-is7C0-111">
          <mxGeometry relative="1" as="geometry">
            <mxPoint x="1750.0114285714285" y="1250" as="targetPoint" />
            <Array as="points">
              <mxPoint x="2030.0114285714285" y="1285" />
              <mxPoint x="2030.0114285714285" y="1410" />
              <mxPoint x="1770.0114285714285" y="1410" />
              <mxPoint x="1770.0114285714285" y="1210" />
            </Array>
          </mxGeometry>
        </mxCell>
        <mxCell id="7wMVTMGLHSI1RZ-is7C0-116" value="" style="verticalLabelPosition=bottom;verticalAlign=top;html=1;shape=hexagon;perimeter=hexagonPerimeter2;arcSize=6;size=0.11951219512195121;" vertex="1" parent="1">
          <mxGeometry x="1809.482857142857" y="1260" width="205" height="50" as="geometry" />
        </mxCell>
        <mxCell id="7wMVTMGLHSI1RZ-is7C0-117" value="" style="edgeStyle=orthogonalEdgeStyle;rounded=0;orthogonalLoop=1;jettySize=auto;html=1;" edge="1" parent="1">
          <mxGeometry relative="1" as="geometry">
            <mxPoint x="1913.742857142857" y="1310" as="sourcePoint" />
            <mxPoint x="1913.982857142857" y="1330" as="targetPoint" />
          </mxGeometry>
        </mxCell>
        <mxCell id="7wMVTMGLHSI1RZ-is7C0-118" value="for (int j = 0; j &amp;lt; m; j++)" style="text;html=1;align=center;verticalAlign=middle;whiteSpace=wrap;rounded=0;" vertex="1" parent="1">
          <mxGeometry x="1840.0114285714285" y="1270" width="150" height="30" as="geometry" />
        </mxCell>
        <mxCell id="7wMVTMGLHSI1RZ-is7C0-119" value="" style="edgeStyle=orthogonalEdgeStyle;rounded=0;orthogonalLoop=1;jettySize=auto;html=1;entryX=0;entryY=0.5;entryDx=0;entryDy=0;" edge="1" parent="1" target="7wMVTMGLHSI1RZ-is7C0-116">
          <mxGeometry relative="1" as="geometry">
            <mxPoint x="1913.982857142857" y="1360" as="sourcePoint" />
            <mxPoint x="1793.982857142857" y="1330" as="targetPoint" />
            <Array as="points">
              <mxPoint x="1914.0114285714285" y="1390" />
              <mxPoint x="1790.0114285714285" y="1390" />
              <mxPoint x="1790.0114285714285" y="1285" />
            </Array>
          </mxGeometry>
        </mxCell>
        <mxCell id="7wMVTMGLHSI1RZ-is7C0-120" value="cout &amp;lt;&amp;lt; ptr[i][j] &amp;lt;&amp;lt; &#39;\t&#39;;" style="shape=parallelogram;perimeter=parallelogramPerimeter;whiteSpace=wrap;html=1;fixedSize=1;" vertex="1" parent="1">
          <mxGeometry x="1841.98" y="1330" width="140" height="30" as="geometry" />
        </mxCell>
        <mxCell id="7wMVTMGLHSI1RZ-is7C0-121" value="cout &amp;lt;&amp;lt; endl;" style="shape=parallelogram;perimeter=parallelogramPerimeter;whiteSpace=wrap;html=1;fixedSize=1;" vertex="1" parent="1">
          <mxGeometry x="1973.98" y="1350" width="140" height="30" as="geometry" />
        </mxCell>
        <mxCell id="7wMVTMGLHSI1RZ-is7C0-122" style="edgeStyle=orthogonalEdgeStyle;rounded=0;orthogonalLoop=1;jettySize=auto;html=1;exitX=1;exitY=0.5;exitDx=0;exitDy=0;entryX=0.403;entryY=0.019;entryDx=0;entryDy=0;entryPerimeter=0;" edge="1" parent="1" source="7wMVTMGLHSI1RZ-is7C0-116" target="7wMVTMGLHSI1RZ-is7C0-121">
          <mxGeometry relative="1" as="geometry">
            <Array as="points">
              <mxPoint x="2030.04" y="1285" />
              <mxPoint x="2030.04" y="1330" />
              <mxPoint x="2030.04" y="1330" />
            </Array>
          </mxGeometry>
        </mxCell>
        <mxCell id="7wMVTMGLHSI1RZ-is7C0-126" style="edgeStyle=orthogonalEdgeStyle;rounded=0;orthogonalLoop=1;jettySize=auto;html=1;exitX=1;exitY=0.5;exitDx=0;exitDy=0;" edge="1" source="7wMVTMGLHSI1RZ-is7C0-127" parent="1">
          <mxGeometry relative="1" as="geometry">
            <mxPoint x="2533.9714285714285" y="1430" as="targetPoint" />
          </mxGeometry>
        </mxCell>
        <mxCell id="7wMVTMGLHSI1RZ-is7C0-127" value="" style="verticalLabelPosition=bottom;verticalAlign=top;html=1;shape=hexagon;perimeter=hexagonPerimeter2;arcSize=6;size=0.11951219512195121;" vertex="1" parent="1">
          <mxGeometry x="2179.4714285714285" y="1320" width="205" height="50" as="geometry" />
        </mxCell>
        <mxCell id="7wMVTMGLHSI1RZ-is7C0-128" value="" style="edgeStyle=orthogonalEdgeStyle;rounded=0;orthogonalLoop=1;jettySize=auto;html=1;" edge="1" parent="1">
          <mxGeometry relative="1" as="geometry">
            <mxPoint x="2283.7314285714283" y="1370" as="sourcePoint" />
            <mxPoint x="2283.9714285714285" y="1390" as="targetPoint" />
          </mxGeometry>
        </mxCell>
        <mxCell id="7wMVTMGLHSI1RZ-is7C0-129" value="for (int i = 0; i &amp;lt; n; i++)" style="text;html=1;align=center;verticalAlign=middle;whiteSpace=wrap;rounded=0;" vertex="1" parent="1">
          <mxGeometry x="2223.9714285714285" y="1330" width="120" height="30" as="geometry" />
        </mxCell>
        <mxCell id="7wMVTMGLHSI1RZ-is7C0-130" value="" style="edgeStyle=orthogonalEdgeStyle;rounded=0;orthogonalLoop=1;jettySize=auto;html=1;entryX=0;entryY=0.5;entryDx=0;entryDy=0;" edge="1" target="7wMVTMGLHSI1RZ-is7C0-127" parent="1">
          <mxGeometry relative="1" as="geometry">
            <mxPoint x="2283.9714285714285" y="1420" as="sourcePoint" />
            <mxPoint x="2163.9714285714285" y="1390" as="targetPoint" />
            <Array as="points">
              <mxPoint x="2283.9714285714285" y="1470" />
              <mxPoint x="2159.9714285714285" y="1470" />
              <mxPoint x="2159.9714285714285" y="1345" />
            </Array>
          </mxGeometry>
        </mxCell>
        <mxCell id="7wMVTMGLHSI1RZ-is7C0-131" value="delete[] ptr[i];" style="rounded=0;whiteSpace=wrap;html=1;" vertex="1" parent="1">
          <mxGeometry x="2223.9714285714285" y="1390" width="120" height="30" as="geometry" />
        </mxCell>
        <mxCell id="7wMVTMGLHSI1RZ-is7C0-135" style="edgeStyle=orthogonalEdgeStyle;rounded=0;orthogonalLoop=1;jettySize=auto;html=1;exitX=0.5;exitY=1;exitDx=0;exitDy=0;entryX=0.5;entryY=0;entryDx=0;entryDy=0;" edge="1" parent="1" source="7wMVTMGLHSI1RZ-is7C0-132" target="7wMVTMGLHSI1RZ-is7C0-133">
          <mxGeometry relative="1" as="geometry" />
        </mxCell>
        <mxCell id="7wMVTMGLHSI1RZ-is7C0-132" value="delete[] ptr;" style="rounded=0;whiteSpace=wrap;html=1;" vertex="1" parent="1">
          <mxGeometry x="2480.0014285714287" y="1430" width="120" height="30" as="geometry" />
        </mxCell>
        <mxCell id="7wMVTMGLHSI1RZ-is7C0-133" value="return 0;" style="ellipse;whiteSpace=wrap;html=1;" vertex="1" parent="1">
          <mxGeometry x="2480" y="1490" width="120" height="50" as="geometry" />
        </mxCell>
      </root>
    </mxGraphModel>
  </diagram>
</mxfile>
